<?xml version="1.0" standalone="no"?><!DOCTYPE svg PUBLIC "-//W3C//DTD SVG 1.1//EN" "http://www.w3.org/Graphics/SVG/1.1/DTD/svg11.dtd"><svg t="1553134602294" class="icon" style="" viewBox="0 0 1024 1024" version="1.1" xmlns="http://www.w3.org/2000/svg" p-id="3440" xmlns:xlink="http://www.w3.org/1999/xlink" width="32" height="32"><defs><style type="text/css"></style></defs><path d="M988.943059 806.430118H503.326118c-17.648941 0-31.924706-18.913882-31.924706-42.164706 0-23.311059 14.275765-42.164706 31.924706-42.164706h485.49647c17.588706 0 31.924706 18.853647 31.924706 42.164706 0 23.250824-14.215529 42.164706-31.804235 42.164706z m-149.925647 180.826353H348.521412c-17.588706 0-31.924706-18.853647-31.924706-42.164706 0-23.250824 14.336-42.164706 31.924706-42.164706h490.496c17.648941 0 31.924706 18.913882 31.924706 42.164706 0 23.311059-14.275765 42.164706-31.924706 42.164706zM301.417412 855.04a30.057412 30.057412 0 0 1-16.926118-5.12L53.007059 706.198588a30.72 30.72 0 0 1-8.854588-42.285176l386.108235-592.112941A96.256 96.256 0 0 1 564.404706 44.333176l123.843765 73.366589a95.472941 95.472941 0 0 1 27.166117 131.915294l-388.276706 591.570823a30.418824 30.418824 0 0 1-25.72047 13.854118z m-182.031059-181.187765l163.117176 107.700706 371.049412-565.669647a34.575059 34.575059 0 0 0-9.697882-47.585882l-106.797177-71.077647a34.936471 34.936471 0 0 0-48.308706 9.938823l-369.362823 566.693647z" fill="#333333" p-id="3441"></path><path d="M40.658824 961.596235a30.358588 30.358588 0 0 1-13.071059-27.226353l12.649411-251.482353a30.72 30.72 0 0 1 33.008942-28.310588c16.986353 1.264941 34.093176 15.962353 32.88847 32.828235l-7.107764 191.969883c68.065882-30.900706 178.115765-83.064471 179.742117-83.727059 15.540706-7.107765 32.105412 4.035765 39.152941 19.456 7.107765 15.239529 1.987765 36.382118-13.552941 43.369412L71.077647 964.547765a33.731765 33.731765 0 0 1-12.830118 2.590117 30.659765 30.659765 0 0 1-17.588705-5.541647z m583.68-628.495059a30.840471 30.840471 0 0 1-16.865883-4.999529L408.033882 198.656a30.298353 30.298353 0 0 1-8.854588-42.285176 30.900706 30.900706 0 0 1 42.646588-8.794353L641.264941 277.082353a30.599529 30.599529 0 1 1-16.865882 56.079059z" fill="#333333" p-id="3442"></path></svg>