<?xml version="1.0" standalone="no"?><!DOCTYPE svg PUBLIC "-//W3C//DTD SVG 1.1//EN" "http://www.w3.org/Graphics/SVG/1.1/DTD/svg11.dtd"><svg t="1553132468377" class="icon" style="" viewBox="0 0 1024 1024" version="1.1" xmlns="http://www.w3.org/2000/svg" p-id="2525" xmlns:xlink="http://www.w3.org/1999/xlink" width="16" height="16"><defs><style type="text/css"></style></defs><path d="M576 940.8c-17.6 0-35.2-4.8-51.2-14.4l-128-80c-28.8-17.6-44.8-48-44.8-81.6V491.2L156.8 252.8A95.68 95.68 0 0 1 144 150.4c16-33.6 49.6-54.4 86.4-54.4H792c38.4 0 72 20.8 88 54.4 16 33.6 11.2 73.6-12.8 102.4L672 491.2v353.6c0 35.2-19.2 67.2-49.6 83.2-14.4 8-30.4 12.8-46.4 12.8zM230.4 160c-19.2 0-27.2 14.4-28.8 17.6s-8 19.2 4.8 33.6l203.2 248c4.8 6.4 8 12.8 8 20.8v284.8c0 11.2 6.4 20.8 14.4 27.2l128 80c14.4 9.6 27.2 3.2 32 1.6 4.8-3.2 16-11.2 16-27.2V480c0-8 3.2-14.4 8-20.8l203.2-248c11.2-14.4 6.4-30.4 4.8-33.6-1.6-4.8-9.6-17.6-28.8-17.6H230.4z" p-id="2526" fill="#707070"></path></svg>