<?xml version="1.0" standalone="no"?><!DOCTYPE svg PUBLIC "-//W3C//DTD SVG 1.1//EN" "http://www.w3.org/Graphics/SVG/1.1/DTD/svg11.dtd"><svg t="1553132681513" class="icon" style="" viewBox="0 0 1024 1024" version="1.1" xmlns="http://www.w3.org/2000/svg" p-id="2817" xmlns:xlink="http://www.w3.org/1999/xlink" width="32" height="32"><defs><style type="text/css"></style></defs><path d="M669.76 1024a32 32 0 0 1-32-32V456.768c0-7.424 2.624-14.656 7.36-20.416l268.352-324.096c13.248-15.808 17.024-34.816 12.992-43.456-0.576-1.28-2.24-4.8-12.672-4.8H110.208c-10.432 0-12.096 3.52-12.736 4.864-4.032 8.64-0.192 27.584 12.928 43.264L428.608 438.4a32.128 32.128 0 0 1 9.088 22.336l-0.064 311.616a32 32 0 0 1-64 0l0.064-298.624-310.72-318.72C32.96 119.424 24.192 74.624 39.488 41.792 51.904 15.232 77.632 0 110.208 0h803.648c32.576 0 58.304 15.232 70.656 41.792 15.296 32.832 6.528 77.568-21.888 111.488l-260.864 315.072V992a32 32 0 0 1-32 32z" p-id="2818" fill="#707070"></path></svg>