<?xml version="1.0" standalone="no"?><!DOCTYPE svg PUBLIC "-//W3C//DTD SVG 1.1//EN" "http://www.w3.org/Graphics/SVG/1.1/DTD/svg11.dtd"><svg t="1553133070075" class="icon" style="" viewBox="0 0 1024 1024" version="1.1" xmlns="http://www.w3.org/2000/svg" p-id="3683" xmlns:xlink="http://www.w3.org/1999/xlink" width="32" height="32"><defs><style type="text/css"></style></defs><path d="M948.562 852.549l-181.692-181.676c47.242-64.175 75.201-143.377 75.201-228.996 0-213.452-173.674-387.121-387.138-387.121s-387.131 173.669-387.131 387.122c0 213.459 173.668 387.125 387.133 387.125 85.62 0 164.825-27.959 229.002-75.2l181.689 181.674c11.45 11.444 26.451 17.172 41.466 17.172 15.013 0 30.015-5.729 41.471-17.172 22.898-22.906 22.898-60.035 0.001-82.929zM163.093 441.878c0-160.917 130.919-291.837 291.842-291.837s291.85 130.919 291.85 291.837c0 160.919-130.924 291.838-291.85 291.838s-291.842-130.919-291.842-291.838z" p-id="3684" fill="#aaaaaa"></path></svg>