<?xml version="1.0" standalone="no"?><!DOCTYPE svg PUBLIC "-//W3C//DTD SVG 1.1//EN" "http://www.w3.org/Graphics/SVG/1.1/DTD/svg11.dtd"><svg t="1553134625389" class="icon" style="" viewBox="0 0 1131 1024" version="1.1" xmlns="http://www.w3.org/2000/svg" p-id="3799" xmlns:xlink="http://www.w3.org/1999/xlink" width="35.34375" height="32"><defs><style type="text/css"></style></defs><path d="M751.777684 275.779368a38.912 38.912 0 0 0-11.102316-27.216842 37.510737 37.510737 0 0 0-26.785684-11.317894H217.626947a38.211368 38.211368 0 0 0-37.888 38.534736c0 21.342316 16.976842 38.588632 37.888 38.588632h496.262737a37.510737 37.510737 0 0 0 26.785684-11.317895 38.912 38.912 0 0 0 11.048421-27.270737z m-76.314947 231.962948a38.211368 38.211368 0 0 0-37.888-38.534737H217.626947a37.726316 37.726316 0 0 0-33.199158 19.132632 39.181474 39.181474 0 0 0 0 38.80421 37.726316 37.726316 0 0 0 33.199158 19.186526h419.94779c20.911158 0 37.888-17.246316 37.888-38.588631z m-491.034948 213.800421a39.181474 39.181474 0 0 0 0 38.80421 37.726316 37.726316 0 0 0 33.145264 19.186527h228.944842a37.726316 37.726316 0 0 0 33.199158-19.132632 39.181474 39.181474 0 0 0 0-38.858105 37.726316 37.726316 0 0 0-33.199158-19.132632H217.573053a37.726316 37.726316 0 0 0-33.145264 19.132632z m435.469474 254.005895a38.534737 38.534737 0 0 0-36.810105-39.343158H127.299368a24.683789 24.683789 0 0 1-24.46821-24.899369V145.839158c0-13.743158 10.940632-24.845474 24.46821-24.899369h676.917895c13.473684 0 24.414316 11.156211 24.468211 24.899369v271.737263c0 21.288421 16.922947 38.534737 37.834105 38.534737 20.911158 0 37.834105-17.246316 37.834105-38.534737V145.839158c0-56.212211-44.894316-101.968842-100.136421-101.968842H127.299368C72.057263 43.870316 27.162947 89.626947 27.162947 145.839158V911.36c0 56.266105 44.894316 102.022737 100.136421 102.022737h448.080843c2.155789 0.431158 4.473263 0.646737 6.790736 0.646737a38.534737 38.534737 0 0 0 37.726316-38.426948z" fill="#2288EE" p-id="3800"></path><path d="M854.608842 521.485474a248.616421 248.616421 0 1 1 0 497.178947 248.616421 248.616421 0 0 1 0-497.178947z m104.55579 215.471158h-67.152843v-108.975158a33.684211 33.684211 0 1 0-67.368421 0V770.694737c0 18.593684 15.090526 33.684211 33.684211 33.68421h100.890947a33.684211 33.684211 0 1 0 0-67.368421z" fill="#2288EE" p-id="3801"></path></svg>