<?xml version="1.0" standalone="no"?><!DOCTYPE svg PUBLIC "-//W3C//DTD SVG 1.1//EN" "http://www.w3.org/Graphics/SVG/1.1/DTD/svg11.dtd"><svg t="1553134614550" class="icon" style="" viewBox="0 0 1131 1024" version="1.1" xmlns="http://www.w3.org/2000/svg" p-id="3679" xmlns:xlink="http://www.w3.org/1999/xlink" width="35.34375" height="32"><defs><style type="text/css"></style></defs><path d="M779.048421 256.592842a38.534737 38.534737 0 0 0-38.588632-38.534737H234.981053a38.534737 38.534737 0 0 0 0 77.069474h505.532631a38.534737 38.534737 0 0 0 38.534737-38.534737z m-77.770105 231.962947a38.534737 38.534737 0 0 0-38.534737-38.534736H234.873263a38.534737 38.534737 0 1 0 0 77.069473h427.870316c21.288421 0 38.534737-17.246316 38.534737-38.534737z m-466.405053 194.613895a38.534737 38.534737 0 1 0 0 77.123369h233.202526a38.534737 38.534737 0 1 0 0-77.069474H234.873263z m576.134737 273.192421a38.858105 38.858105 0 0 0-37.510737-39.343158h-630.568421a24.953263 24.953263 0 0 1-24.953263-24.899368V126.652632c0-13.743158 11.156211-24.899368 24.899368-24.899369h689.583158c13.743158 0 24.899368 11.156211 24.899369 24.899369v298.361263a38.534737 38.534737 0 1 0 77.123368 0V126.652632c0-56.266105-45.810526-102.022737-102.022737-102.022737H142.874947C86.608842 24.629895 40.852211 70.440421 40.852211 126.652632v765.466947c0 56.266105 45.810526 102.022737 102.022736 102.022737h622.753685a38.858105 38.858105 0 0 0 45.379368-37.726316z" fill="#272636" p-id="3680"></path><path d="M993.603368 823.134316a32.229053 32.229053 0 0 0-22.851368 54.972631l91.082105 91.082106a32.067368 32.067368 0 0 0 45.648842 0 32.229053 32.229053 0 0 0 0-45.594948l-91.082105-91.082105a32.336842 32.336842 0 0 0-22.797474-9.377684z" fill="#272636" p-id="3681"></path><path d="M888.993684 590.362947a128.970105 128.970105 0 0 1 128.862316 128.808421 128.970105 128.970105 0 0 1-128.808421 128.862316 128.970105 128.970105 0 0 1-128.862316-128.808421 128.970105 128.970105 0 0 1 128.808421-128.862316z m0-64.458105a193.266526 193.266526 0 1 0 0 386.586947 193.266526 193.266526 0 0 0 0-386.586947z" fill="#272636" p-id="3682"></path></svg>